HIERARCHY
ROOT reference
{
  OFFSET 0 0 0
  CHANNELS 6 Xposition Yposition Zposition Zrotation Xrotation Yrotation
  JOINT Hips
  {
    OFFSET -18.5823 70.5434 48.0736
    CHANNELS 6 Xposition Yposition Zposition Zrotation Xrotation Yrotation
    JOINT Spine
    {
      OFFSET 0 8.12958 0
      CHANNELS 6 Xposition Yposition Zposition Zrotation Xrotation Yrotation
      JOINT Spine1
      {
        OFFSET 0 26.3907 0
        CHANNELS 6 Xposition Yposition Zposition Zrotation Xrotation Yrotation
        JOINT Neck
        {
          OFFSET 0 26.2823 2.3893
          CHANNELS 6 Xposition Yposition Zposition Zrotation Xrotation Yrotation
          JOINT Head
          {
            OFFSET 0 13.8798 -1.98282
            CHANNELS 6 Xposition Yposition Zposition Zrotation Xrotation Yrotation
            End Site
            {
              OFFSET 0 24.7853 0
            }
          }
        }
        JOINT LeftShoulder
        {
          OFFSET 3.97789 23.5745 -0.27352
          CHANNELS 6 Xposition Yposition Zposition Zrotation Xrotation Yrotation
          JOINT LeftArm
          {
            OFFSET 13.7626 0 0
            CHANNELS 6 Xposition Yposition Zposition Zrotation Xrotation Yrotation
            JOINT LeftForeArm
            {
              OFFSET 26.1014 0 0
              CHANNELS 6 Xposition Yposition Zposition Zrotation Xrotation Yrotation
              JOINT LeftHand
              {
                OFFSET 29.9599 0 0
                CHANNELS 6 Xposition Yposition Zposition Zrotation Xrotation Yrotation
                End Site
                {
                  OFFSET 14.8712 0 0
                }
              }
            }
          }
        }
        JOINT RightShoulder
        {
          OFFSET -3.9517 23.5745 -0.27352
          CHANNELS 6 Xposition Yposition Zposition Zrotation Xrotation Yrotation
          JOINT RightArm
          {
            OFFSET -13.7626 0 0
            CHANNELS 6 Xposition Yposition Zposition Zrotation Xrotation Yrotation
            JOINT RightForeArm
            {
              OFFSET -26.1014 0 0
              CHANNELS 6 Xposition Yposition Zposition Zrotation Xrotation Yrotation
              JOINT RightHand
              {
                OFFSET -29.9599 0 0
                CHANNELS 6 Xposition Yposition Zposition Zrotation Xrotation Yrotation
                End Site
                {
                  OFFSET -14.8712 0 0
                }
              }
            }
          }
        }
      }
    }
    JOINT LeftUpLeg
    {
      OFFSET 9.91412 0 0
      CHANNELS 6 Xposition Yposition Zposition Zrotation Xrotation Yrotation
      JOINT LeftLeg
      {
        OFFSET 0 -41.4279 0
        CHANNELS 6 Xposition Yposition Zposition Zrotation Xrotation Yrotation
        JOINT LeftFoot
        {
          OFFSET 0 -41.0254 0
          CHANNELS 6 Xposition Yposition Zposition Zrotation Xrotation Yrotation
          JOINT LeftToeBase
          {
            OFFSET 0 -6.44418 14.8712
            CHANNELS 6 Xposition Yposition Zposition Zrotation Xrotation Yrotation
            End Site
            {
              OFFSET 0 0 3.96565
            }
          }
        }
      }
    }
    JOINT RightUpLeg
    {
      OFFSET -9.91412 0 0
      CHANNELS 6 Xposition Yposition Zposition Zrotation Xrotation Yrotation
      JOINT RightLeg
      {
        OFFSET 0 -41.4279 0
        CHANNELS 6 Xposition Yposition Zposition Zrotation Xrotation Yrotation
        JOINT RightFoot
        {
          OFFSET 0 -41.0254 0
          CHANNELS 6 Xposition Yposition Zposition Zrotation Xrotation Yrotation
          JOINT RightToeBase
          {
            OFFSET 0 -6.44418 14.8712
            CHANNELS 6 Xposition Yposition Zposition Zrotation Xrotation Yrotation
            End Site
            {
              OFFSET 0 0 3.96565
            }
          }
        }
      }
    }
  }
}
MOTION
Frames:	8
Frame Time:	0.004
0 0 0 0 0 -0 -7.93735 62.3116 -162.634 9.67625 2.38437 33.5268 0 8.12958 2.84217e-014 2.78378 52.9885 -0.242876 0 26.3907 -2.84217e-014 -10.0461 15.3415 2.50155 0 26.2823 2.3893 -10.1232 -6.44983 18.1501 -2.84217e-014 13.8798 -1.98282 -17.1537 -22.9959 15.2711 3.97789 23.5745 -0.27352 -17.9676 17.6383 -7.64015 13.7626 0 -1.42109e-014 -17.0814 25.6739 -42.0593 26.1014 0 2.84217e-014 55.5315 -32.3225 -31.5981 29.9599 -1.42109e-014 0 0.932893 -16.7334 1.84138 -3.9517 23.5745 -0.27352 10.6574 16.5382 14.78 -13.7626 0 1.42109e-014 21.6427 26.8905 33.5908 -26.1014 0 7.10543e-015 -36.283 -37.8201 39.7868 -29.9599 1.42109e-014 7.10543e-015 7.37269 -25.2018 18.5158 9.91412 0 2.84217e-014 3.18609 -57.5193 13.7673 0 -41.4279 -7.10543e-015 -42.4611 73.5273 26.9178 0 -41.0254 1.42109e-014 -13.2585 -10.296 -11.6509 0 -6.44418 14.8712 -7.95139e-016 -3.18055e-015 6.36111e-015 -9.91412 0 0 -9.01958 -37.7689 -12.3037 7.10543e-015 -41.4279 0 141.274 84.3736 -113.912 0 -41.0254 0 -20.8214 -35.9178 -32.7443 7.10543e-015 -6.44418 14.8712 -1.59028e-015 3.18055e-015 3.18055e-015 
0 0 0 0 0 -0 -7.80408 62.2249 -162.389 9.75171 2.30613 33.3986 0 8.12958 -2.84217e-014 2.69014 53.0026 -0.185424 1.42109e-014 26.3907 -2.84217e-014 -10.116 15.2927 2.51787 -1.42109e-014 26.2823 2.3893 -9.99836 -6.43294 18.1641 0 13.8798 -1.98282 -17.1576 -22.7965 15.2861 3.97789 23.5745 -0.27352 -18.0135 17.6638 -7.55837 13.7626 0 0 -16.8128 26.2242 -42.4474 26.1014 0 0 56.1136 -32.5311 -30.7287 29.9599 7.10543e-015 0 -0.569829 -17.2734 1.54539 -3.9517 23.5745 -0.27352 10.6996 16.5455 14.76 -13.7626 0 0 21.6847 26.9451 33.6232 -26.1014 0 0 -36.2586 -37.7908 39.6853 -29.9599 0 0 7.52633 -25.1764 18.721 9.91412 0 -2.84217e-014 2.84466 -57.5379 13.6636 -1.42109e-014 -41.4279 0 -41.6209 73.2444 26.3403 0 -41.0254 -1.42109e-014 -13.3619 -8.91795 -12.1393 -7.10543e-015 -6.44418 14.8712 -9.93923e-015 -3.18055e-015 3.18055e-015 -9.91412 -7.10543e-015 0 -9.01876 -37.5638 -12.1658 0 -41.4279 1.42109e-014 142.427 84.1136 -114.835 0 -41.0254 -7.10543e-015 -20.8063 -36.003 -32.7832 0 -6.44418 14.8712 -3.97569e-015 -3.18055e-015 -6.36111e-015 
0 0 0 0 0 -0 -7.66609 62.1315 -162.138 9.81651 2.22933 33.265 0 8.12958 -2.84217e-014 2.60313 52.967 -0.10988 -1.42109e-014 26.3907 0 -10.182 15.3205 2.56048 0 26.2823 2.3893 -9.92116 -6.43862 18.1273 -2.84217e-014 13.8798 -1.98282 -17.1019 -22.6526 15.2714 3.97789 23.5745 -0.27352 -18.0513 17.762 -7.49536 13.7626 -7.10543e-015 -1.42109e-014 -17.1142 25.7943 -42.2224 26.1014 0 2.84217e-014 55.2294 -32.6261 -31.9934 29.9599 1.42109e-014 0 0.76101 -16.9686 1.78187 -3.9517 23.5745 -0.27352 10.738 16.537 14.7044 -13.7626 0 1.42109e-014 21.7296 27.0445 33.6615 -26.1014 0 7.10543e-015 -36.2903 -37.8808 39.6331 -29.9599 0 0 7.86029 -25.2233 18.9156 9.91412 0 -2.84217e-014 2.46574 -57.5525 13.5616 0 -41.4279 7.10543e-015 -40.5709 73.0312 25.5257 0 -41.0254 1.42109e-014 -13.1755 -7.771 -12.5276 7.10543e-015 -6.44418 14.8712 3.18055e-015 1.59028e-015 3.18055e-015 -9.91412 0 0 -9.01136 -37.3382 -12.0607 0 -41.4279 0 143.624 83.8758 -115.738 0 -41.0254 0 -20.8842 -36.1129 -32.9428 -7.10543e-015 -6.44418 14.8712 -2.38542e-015 0 3.18055e-015 
0 0 0 0 0 -0 -7.52219 62.041 -161.883 9.89578 2.15934 33.1225 -1.42109e-014 8.12958 0 2.47621 52.949 -0.015635 1.42109e-014 26.3907 2.84217e-014 -10.2279 15.3082 2.59611 1.42109e-014 26.2823 2.3893 -9.93748 -6.45646 18.063 0 13.8798 -1.98282 -16.8637 -22.4856 15.312 3.97789 23.5745 -0.27352 -18.1317 17.798 -7.46493 13.7626 0 1.42109e-014 -17.1656 25.8372 -42.213 26.1014 -7.10543e-015 0 54.9953 -32.7464 -32.2501 29.9599 -7.10543e-015 0 0.844004 -17.0468 1.68027 -3.9517 23.5745 -0.27352 10.7653 16.5903 14.6752 -13.7626 1.42109e-014 0 21.7842 27.0653 33.6922 -26.1014 2.84217e-014 -1.42109e-014 -36.3433 -37.9095 39.5511 -29.9599 0 -7.10543e-015 7.80041 -25.2779 18.849 9.91412 -7.10543e-015 0 2.06861 -57.5678 13.4259 0 -41.4279 -7.10543e-015 -39.5724 72.8633 24.6296 0 -41.0254 -1.42109e-014 -13.4744 -6.24834 -12.614 7.10543e-015 -6.44418 14.8712 -3.57812e-015 0 3.18055e-015 -9.91412 7.10543e-015 0 -8.97834 -37.147 -11.9813 0 -41.4279 0 145.46 83.6806 -117.656 1.42109e-014 -41.0254 7.10543e-015 -20.6539 -36.3232 -32.6961 -7.10543e-015 -6.44418 14.8712 2.38542e-015 3.18055e-015 3.18055e-015 
0 0 0 0 0 -0 -7.39257 61.9554 -161.642 9.9259 2.1229 32.9455 0 8.12958 0 2.29533 52.9248 0.119397 1.42109e-014 26.3907 0 -10.251 15.2493 2.63812 0 26.2823 2.3893 -9.86425 -6.49168 18.0307 0 13.8798 -1.98282 -16.7922 -22.2483 15.3235 3.97789 23.5745 -0.27352 -18.2101 17.8179 -7.42297 13.7626 -1.42109e-014 0 -17.1768 25.9817 -42.2421 26.1014 0 0 54.9106 -32.9629 -32.4369 29.9599 0 0 0.53223 -17.2254 1.58891 -3.9517 23.5745 -0.27352 10.7689 16.5909 14.6525 -13.7626 -1.42109e-014 0 21.8719 27.1086 33.7108 -26.1014 0 7.10543e-015 -36.2642 -37.9554 39.6001 -29.9599 -1.42109e-014 7.10543e-015 7.66938 -25.3726 18.6872 9.91412 0 0 1.71771 -57.5687 13.3309 0 -41.4279 -7.10543e-015 -38.4144 72.4413 23.9723 0 -41.0254 0 -12.8811 -4.96827 -13.0276 -7.10543e-015 -6.44418 14.8712 -5.96354e-015 2.38542e-015 -0 -9.91412 7.10543e-015 0 -8.97733 -36.9138 -11.789 7.10543e-015 -41.4279 0 145.581 83.4302 -117.124 0 -41.0254 0 -21.0686 -36.4333 -33.2686 -7.10543e-015 -6.44418 14.8712 1.59028e-015 0 -9.54166e-015 
0 0 0 0 0 -0 -7.24449 61.8623 -161.381 10.0097 2.03384 32.7955 0 8.12958 0 2.19983 52.9177 0.190442 -1.42109e-014 26.3907 0 -10.3317 15.2566 2.6731 -1.42109e-014 26.2823 2.3893 -9.82164 -6.50771 17.9624 2.84217e-014 13.8798 -1.98282 -16.5901 -22.1207 15.3286 3.97789 23.5745 -0.27352 -18.2642 17.8911 -7.37195 13.7626 0 0 -16.8475 26.5433 -42.6686 26.1014 7.10543e-015 0 55.651 -33.0735 -31.524 29.9599 1.42109e-014 -2.84217e-014 0.229503 -17.5968 1.39234 -3.9517 23.5745 -0.27352 10.8144 16.6 14.6214 -13.7626 0 0 21.9486 27.1502 33.7281 -26.1014 0 7.10543e-015 -36.2362 -37.9947 39.6157 -29.9599 0 0 7.61983 -25.4373 18.5693 9.91412 0 0 1.31886 -57.4674 12.9853 -1.42109e-014 -41.4279 0 -37.8468 72.1324 23.784 -1.42109e-014 -41.0254 0 -11.1299 -4.70366 -13.2818 7.10543e-015 -6.44418 14.8712 -7.95139e-016 7.95139e-016 -0 -9.91412 0 0 -8.98176 -36.7192 -11.6855 7.10543e-015 -41.4279 -1.42109e-014 147.658 83.1145 -118.087 0 -41.0254 0 -21.4648 -36.1897 -34.2194 7.10543e-015 -6.44418 14.8712 0 0 -3.18055e-015 
0 0 0 0 0 -0 -7.09676 61.767 -161.125 10.0893 1.96844 32.6165 0 8.12958 0 2.01839 52.9031 0.327592 1.42109e-014 26.3907 0 -10.3746 15.2107 2.72107 -1.42109e-014 26.2823 2.3893 -9.70492 -6.41679 17.9112 0 13.8798 -1.98282 -16.5542 -22.0295 15.2671 3.97789 23.5745 -0.27352 -18.3231 17.9132 -7.3823 13.7626 7.10543e-015 0 -16.872 26.707 -42.662 26.1014 7.10543e-015 2.84217e-014 55.5723 -33.2803 -31.5774 29.9599 -1.42109e-014 0 -0.890234 -17.8421 1.23747 -3.9517 23.5745 -0.27352 10.8646 16.6624 14.6172 -13.7626 0 0 21.9963 27.2064 33.6959 -26.1014 0 -7.10543e-015 -36.3813 -37.9896 39.4465 -29.9599 0 0 7.74603 -25.3985 18.8655 9.91412 -7.10543e-015 0 0.917836 -57.3604 12.8087 1.42109e-014 -41.4279 -7.10543e-015 -37.1497 72.0605 23.1443 0 -41.0254 0 -8.98243 -4.60612 -12.912 0 -6.44418 14.8712 -7.95139e-015 0 -0 -9.91412 0 0 -8.94892 -36.5713 -11.5812 -1.42109e-014 -41.4279 1.42109e-014 149.407 82.8748 -119.894 -1.42109e-014 -41.0254 -7.10543e-015 -21.2171 -36.3214 -33.9689 7.10543e-015 -6.44418 14.8712 0 0 -3.18055e-015 
0 0 0 0 0 -0 -6.93882 61.6717 -160.863 10.1854 1.87575 32.4408 1.42109e-014 8.12958 0 1.97134 52.9469 0.356155 -1.42109e-014 26.3907 2.84217e-014 -10.5535 15.1309 2.74382 -1.42109e-014 26.2823 2.3893 -9.56834 -6.47608 17.8518 0 13.8798 -1.98282 -16.299 -21.7629 15.3016 3.97789 23.5745 -0.27352 -18.3446 17.9459 -7.32006 13.7626 0 0 -17.2538 26.2825 -42.3063 26.1014 0 0 54.4765 -33.4012 -32.9401 29.9599 -1.42109e-014 0 -0.511573 -17.6205 1.55808 -3.9517 23.5745 -0.27352 10.9702 16.7251 14.6331 -13.7626 0 1.42109e-014 22.0611 27.2659 33.667 -26.1014 0 -1.42109e-014 -36.3849 -38.0613 39.4279 -29.9599 0 0 7.50714 -25.5385 18.5902 9.91412 7.10543e-015 0 0.485445 -57.5782 12.5571 0 -41.4279 0 -37.1656 72.5692 23.7458 1.42109e-014 -41.0254 0 -5.25135 -4.41979 -12.566 0 -6.44418 14.8712 4.96962e-016 -7.95139e-016 -0 -9.91412 0 0 -8.97484 -36.3243 -11.5144 0 -41.4279 0 150.762 82.6394 -120.969 -1.42109e-014 -41.0254 0 -21.2453 -36.4336 -34.0535 -7.10543e-015 -6.44418 14.8712 -7.95139e-016 0 -0 
